<?xml version="1.0" encoding="UTF-8"?>
<!DOCTYPE svg PUBLIC "-//W3C//DTD SVG 1.1//EN" "http://www.w3.org/Graphics/SVG/1.1/DTD/svg11.dtd">
<!-- Creator: CorelDRAW Home & Student X6 -->
<svg xmlns="http://www.w3.org/2000/svg" xml:space="preserve" width="294.428mm" height="81.0682mm" version="1.1" style="shape-rendering:geometricPrecision; text-rendering:geometricPrecision; image-rendering:optimizeQuality; fill-rule:evenodd; clip-rule:evenodd"
viewBox="0 0 29422 8101"
 xmlns:xlink="http://www.w3.org/1999/xlink"
 enable-background="new 0 0 595.28 595.28">
 <defs>
  <style type="text/css">
   <![CDATA[
    .fil2 {fill:#B20000}
    .fil1 {fill:#BABABA}
    .fil35 {fill:white}
    .fil0 {fill:#BABABA;fill-rule:nonzero}
    .fil3 {fill:url(#id0)}
    .fil37 {fill:url(#id1)}
    .fil36 {fill:url(#id2)}
    .fil33 {fill:url(#id3)}
    .fil28 {fill:url(#id4)}
    .fil29 {fill:url(#id5)}
    .fil18 {fill:url(#id6)}
    .fil30 {fill:url(#id7)}
    .fil31 {fill:url(#id8)}
    .fil32 {fill:url(#id9)}
    .fil4 {fill:url(#id10)}
    .fil5 {fill:url(#id11)}
    .fil6 {fill:url(#id12)}
    .fil7 {fill:url(#id13)}
    .fil8 {fill:url(#id14)}
    .fil9 {fill:url(#id15)}
    .fil10 {fill:url(#id16)}
    .fil11 {fill:url(#id17)}
    .fil12 {fill:url(#id18)}
    .fil13 {fill:url(#id19)}
    .fil14 {fill:url(#id20)}
    .fil15 {fill:url(#id21)}
    .fil16 {fill:url(#id22)}
    .fil17 {fill:url(#id23)}
    .fil21 {fill:url(#id24)}
    .fil22 {fill:url(#id25)}
    .fil23 {fill:url(#id26)}
    .fil24 {fill:url(#id27)}
    .fil25 {fill:url(#id28)}
    .fil26 {fill:url(#id29)}
    .fil27 {fill:url(#id30)}
    .fil19 {fill:url(#id31)}
    .fil20 {fill:url(#id32)}
    .fil34 {fill:url(#id33)}
   ]]>
  </style>
  <linearGradient id="id0" gradientUnits="userSpaceOnUse" x1="22288.4" y1="5643.94" x2="28235.7" y2="2656.26">
   <stop offset="0" style="stop-color:#C3CCD0"/>
   <stop offset="0.6" style="stop-color:#C3CCD0"/>
   <stop offset="1" style="stop-color:#7D8487"/>
  </linearGradient>
  <linearGradient id="id1" gradientUnits="userSpaceOnUse" x1="22529.4" y1="5509.63" x2="28212.6" y2="2591.51">
   <stop offset="0" style="stop-color:white"/>
   <stop offset="1" style="stop-color:#D9DDDC"/>
  </linearGradient>
  <linearGradient id="id2" gradientUnits="userSpaceOnUse" x1="29296.9" y1="2061.07" x2="21445.3" y2="6040.27">
   <stop offset="0" style="stop-color:white"/>
   <stop offset="1" style="stop-color:#D9DDDC"/>
  </linearGradient>
  <radialGradient id="id3" gradientUnits="objectBoundingBox" cx="22.9999%" cy="67.9994%" r="50.0004%" fx="22.9999%" fy="67.9994%">
   <stop offset="0" style="stop-color:white"/>
   <stop offset="0.6" style="stop-color:#FBFCFC"/>
   <stop offset="1" style="stop-color:#F4F3F3"/>
   <stop offset="1" style="stop-color:#F4F3F3"/>
  </radialGradient>
  <radialGradient id="id4" gradientUnits="objectBoundingBox" cx="23.9996%" cy="69.9999%" r="50.0003%" fx="23.9996%" fy="69.9999%">
   <stop offset="0" style="stop-color:white"/>
   <stop offset="0.6" style="stop-color:#F4F5F5"/>
   <stop offset="1" style="stop-color:#DFDFDF"/>
   <stop offset="1" style="stop-color:#DFDFDF"/>
  </radialGradient>
  <radialGradient id="id5" gradientUnits="objectBoundingBox" cx="23.9999%" cy="70.0001%" r="50%" fx="23.9999%" fy="70.0001%">
   <stop offset="0" style="stop-color:white"/>
   <stop offset="0.6" style="stop-color:#F5F6F7"/>
   <stop offset="1" style="stop-color:#E3E3E2"/>
   <stop offset="1" style="stop-color:#E3E3E2"/>
  </radialGradient>
  <radialGradient id="id6" gradientUnits="objectBoundingBox" cx="24%" cy="68.9999%" r="50%" fx="24%" fy="68.9999%">
   <stop offset="0" style="stop-color:white"/>
   <stop offset="0.6" style="stop-color:#E9ECED"/>
   <stop offset="1" style="stop-color:#BCBCBC"/>
   <stop offset="1" style="stop-color:#BCBCBC"/>
  </radialGradient>
  <radialGradient id="id7" gradientUnits="objectBoundingBox" cx="23.9999%" cy="69.0003%" r="50.0003%" fx="23.9999%" fy="69.0003%">
   <stop offset="0" style="stop-color:white"/>
   <stop offset="0.6" style="stop-color:#F7F8F8"/>
   <stop offset="1" style="stop-color:#E7E7E6"/>
   <stop offset="1" style="stop-color:#E7E7E6"/>
  </radialGradient>
  <radialGradient id="id8" gradientUnits="objectBoundingBox" cx="23.9999%" cy="69.0003%" r="50%" fx="23.9999%" fy="69.0003%">
   <stop offset="0" style="stop-color:white"/>
   <stop offset="0.6" style="stop-color:#F8F9F9"/>
   <stop offset="1" style="stop-color:#EBEBEA"/>
   <stop offset="1" style="stop-color:#EBEBEA"/>
  </radialGradient>
  <radialGradient id="id9" gradientUnits="objectBoundingBox" cx="23.9996%" cy="68.9995%" r="50.0003%" fx="23.9996%" fy="68.9995%">
   <stop offset="0" style="stop-color:white"/>
   <stop offset="0.6" style="stop-color:#F9FAFA"/>
   <stop offset="1" style="stop-color:#EFEFEE"/>
   <stop offset="1" style="stop-color:#EFEFEE"/>
  </radialGradient>
  <radialGradient id="id10" gradientUnits="objectBoundingBox" cx="24.9999%" cy="70%" r="50%" fx="24.9999%" fy="70%">
   <stop offset="0" style="stop-color:white"/>
   <stop offset="0.6" style="stop-color:#DAE0E2"/>
   <stop offset="1" style="stop-color:#8F9394"/>
   <stop offset="1" style="stop-color:#8F9394"/>
  </radialGradient>
  <radialGradient id="id11" gradientUnits="objectBoundingBox" cx="24.9999%" cy="70%" r="50.0001%" fx="24.9999%" fy="70%">
   <stop offset="0" style="stop-color:white"/>
   <stop offset="0.6" style="stop-color:#DBE1E3"/>
   <stop offset="1" style="stop-color:#929697"/>
   <stop offset="1" style="stop-color:#929697"/>
  </radialGradient>
  <radialGradient id="id12" gradientUnits="objectBoundingBox" cx="24.9998%" cy="70%" r="50.0001%" fx="24.9998%" fy="70%">
   <stop offset="0" style="stop-color:white"/>
   <stop offset="0.6" style="stop-color:#DCE2E3"/>
   <stop offset="1" style="stop-color:#959999"/>
   <stop offset="1" style="stop-color:#959999"/>
  </radialGradient>
  <radialGradient id="id13" gradientUnits="objectBoundingBox" cx="24.9999%" cy="69.9999%" r="50%" fx="24.9999%" fy="69.9999%">
   <stop offset="0" style="stop-color:white"/>
   <stop offset="0.6" style="stop-color:#DDE2E4"/>
   <stop offset="1" style="stop-color:#989B9C"/>
   <stop offset="1" style="stop-color:#989B9C"/>
  </radialGradient>
  <radialGradient id="id14" gradientUnits="objectBoundingBox" cx="24.9999%" cy="70%" r="50%" fx="24.9999%" fy="70%">
   <stop offset="0" style="stop-color:white"/>
   <stop offset="0.6" style="stop-color:#DEE3E5"/>
   <stop offset="1" style="stop-color:#9B9E9F"/>
   <stop offset="1" style="stop-color:#9B9E9F"/>
  </radialGradient>
  <radialGradient id="id15" gradientUnits="objectBoundingBox" cx="24.9999%" cy="69.9999%" r="50.0001%" fx="24.9999%" fy="69.9999%">
   <stop offset="0" style="stop-color:white"/>
   <stop offset="0.6" style="stop-color:#DFE4E6"/>
   <stop offset="1" style="stop-color:#9EA1A2"/>
   <stop offset="1" style="stop-color:#9EA1A2"/>
  </radialGradient>
  <radialGradient id="id16" gradientUnits="objectBoundingBox" cx="24.9999%" cy="70%" r="50%" fx="24.9999%" fy="70%">
   <stop offset="0" style="stop-color:white"/>
   <stop offset="0.6" style="stop-color:#E0E5E6"/>
   <stop offset="1" style="stop-color:#A1A4A4"/>
   <stop offset="1" style="stop-color:#A1A4A4"/>
  </radialGradient>
  <radialGradient id="id17" gradientUnits="objectBoundingBox" cx="24.9998%" cy="69.9999%" r="50%" fx="24.9998%" fy="69.9999%">
   <stop offset="0" style="stop-color:white"/>
   <stop offset="0.6" style="stop-color:#E2E6E7"/>
   <stop offset="1" style="stop-color:#A5A7A7"/>
   <stop offset="1" style="stop-color:#A5A7A7"/>
  </radialGradient>
  <radialGradient id="id18" gradientUnits="objectBoundingBox" cx="24.9999%" cy="69.9999%" r="50%" fx="24.9999%" fy="69.9999%">
   <stop offset="0" style="stop-color:white"/>
   <stop offset="0.6" style="stop-color:#E3E7E8"/>
   <stop offset="1" style="stop-color:#A8AAAA"/>
   <stop offset="1" style="stop-color:#A8AAAA"/>
  </radialGradient>
  <radialGradient id="id19" gradientUnits="objectBoundingBox" cx="25%" cy="69.9999%" r="50%" fx="25%" fy="69.9999%">
   <stop offset="0" style="stop-color:white"/>
   <stop offset="0.6" style="stop-color:#E4E7E9"/>
   <stop offset="1" style="stop-color:#ABADAD"/>
   <stop offset="1" style="stop-color:#ABADAD"/>
  </radialGradient>
  <radialGradient id="id20" gradientUnits="objectBoundingBox" cx="24.9999%" cy="70%" r="50%" fx="24.9999%" fy="70%">
   <stop offset="0" style="stop-color:white"/>
   <stop offset="0.6" style="stop-color:#E5E8E9"/>
   <stop offset="1" style="stop-color:#AEB0B0"/>
   <stop offset="1" style="stop-color:#AEB0B0"/>
  </radialGradient>
  <radialGradient id="id21" gradientUnits="objectBoundingBox" cx="25%" cy="69.9999%" r="50.0001%" fx="25%" fy="69.9999%">
   <stop offset="0" style="stop-color:white"/>
   <stop offset="0.6" style="stop-color:#E6E9EA"/>
   <stop offset="1" style="stop-color:#B2B3B3"/>
   <stop offset="1" style="stop-color:#B2B3B3"/>
  </radialGradient>
  <radialGradient id="id22" gradientUnits="objectBoundingBox" cx="25%" cy="70.0001%" r="50%" fx="25%" fy="70.0001%">
   <stop offset="0" style="stop-color:white"/>
   <stop offset="0.6" style="stop-color:#E7EAEB"/>
   <stop offset="1" style="stop-color:#B5B6B6"/>
   <stop offset="1" style="stop-color:#B5B6B6"/>
  </radialGradient>
  <radialGradient id="id23" gradientUnits="objectBoundingBox" cx="24.9998%" cy="69.9997%" r="50.0002%" fx="24.9998%" fy="69.9997%">
   <stop offset="0" style="stop-color:white"/>
   <stop offset="0.6" style="stop-color:#E8EBEC"/>
   <stop offset="1" style="stop-color:#B8B9B9"/>
   <stop offset="1" style="stop-color:#B8B9B9"/>
  </radialGradient>
  <radialGradient id="id24" gradientUnits="objectBoundingBox" cx="24.9998%" cy="70.0001%" r="50%" fx="24.9998%" fy="70.0001%">
   <stop offset="0" style="stop-color:white"/>
   <stop offset="0.6" style="stop-color:#ECEEEF"/>
   <stop offset="1" style="stop-color:#C6C6C6"/>
   <stop offset="1" style="stop-color:#C6C6C6"/>
  </radialGradient>
  <radialGradient id="id25" gradientUnits="objectBoundingBox" cx="24.9998%" cy="70%" r="50%" fx="24.9998%" fy="70%">
   <stop offset="0" style="stop-color:white"/>
   <stop offset="0.6" style="stop-color:#EDEFF0"/>
   <stop offset="1" style="stop-color:#CAC9C9"/>
   <stop offset="1" style="stop-color:#CAC9C9"/>
  </radialGradient>
  <radialGradient id="id26" gradientUnits="objectBoundingBox" cx="25%" cy="69.9999%" r="50%" fx="25%" fy="69.9999%">
   <stop offset="0" style="stop-color:white"/>
   <stop offset="0.6" style="stop-color:#EFF0F1"/>
   <stop offset="1" style="stop-color:#CDCDCD"/>
   <stop offset="1" style="stop-color:#CDCDCD"/>
  </radialGradient>
  <radialGradient id="id27" gradientUnits="objectBoundingBox" cx="24.9998%" cy="69.9999%" r="50%" fx="24.9998%" fy="69.9999%">
   <stop offset="0" style="stop-color:white"/>
   <stop offset="0.6" style="stop-color:#F0F1F2"/>
   <stop offset="1" style="stop-color:#D1D0D0"/>
   <stop offset="1" style="stop-color:#D1D0D0"/>
  </radialGradient>
  <radialGradient id="id28" gradientUnits="objectBoundingBox" cx="24.9998%" cy="69.9999%" r="50%" fx="24.9998%" fy="69.9999%">
   <stop offset="0" style="stop-color:white"/>
   <stop offset="0.6" style="stop-color:#F1F2F3"/>
   <stop offset="1" style="stop-color:#D4D4D4"/>
   <stop offset="1" style="stop-color:#D4D4D4"/>
  </radialGradient>
  <radialGradient id="id29" gradientUnits="objectBoundingBox" cx="25%" cy="69.9999%" r="50%" fx="25%" fy="69.9999%">
   <stop offset="0" style="stop-color:white"/>
   <stop offset="0.6" style="stop-color:#F2F3F4"/>
   <stop offset="1" style="stop-color:#D8D7D7"/>
   <stop offset="1" style="stop-color:#D8D7D7"/>
  </radialGradient>
  <radialGradient id="id30" gradientUnits="objectBoundingBox" cx="24.9998%" cy="70%" r="50.0002%" fx="24.9998%" fy="70%">
   <stop offset="0" style="stop-color:white"/>
   <stop offset="0.6" style="stop-color:#F3F4F4"/>
   <stop offset="1" style="stop-color:#DCDBDB"/>
   <stop offset="1" style="stop-color:#DCDBDB"/>
  </radialGradient>
  <radialGradient id="id31" gradientUnits="objectBoundingBox" cx="24.9998%" cy="68.9999%" r="50.0002%" fx="24.9998%" fy="68.9999%">
   <stop offset="0" style="stop-color:white"/>
   <stop offset="0.6" style="stop-color:#EAEDED"/>
   <stop offset="1" style="stop-color:#BFBFC0"/>
   <stop offset="1" style="stop-color:#BFBFC0"/>
  </radialGradient>
  <radialGradient id="id32" gradientUnits="objectBoundingBox" cx="24.9998%" cy="68.9998%" r="50.0002%" fx="24.9998%" fy="68.9998%">
   <stop offset="0" style="stop-color:white"/>
   <stop offset="0.6" style="stop-color:#EBEEEE"/>
   <stop offset="1" style="stop-color:#C3C3C3"/>
   <stop offset="1" style="stop-color:#C3C3C3"/>
  </radialGradient>
  <radialGradient id="id33" gradientUnits="objectBoundingBox" cx="24.9994%" cy="68.9993%" r="50.0004%" fx="24.9994%" fy="68.9993%">
   <stop offset="0" style="stop-color:white"/>
   <stop offset="0.6" style="stop-color:#FDFDFD"/>
   <stop offset="1" style="stop-color:#F8F8F8"/>
   <stop offset="1" style="stop-color:#F8F8F8"/>
  </radialGradient>
 </defs>
 <g id="Layer_x0020_2">
  <metadata id="CorelCorpID_0Corel-Layer"/>
  <path class="fil0" d="M16075 2363l1187 0 0 720c316,-676 1335,-900 1980,-586l-426 1187c-427,-216 -882,-89 -1120,341 -145,262 -261,601 -253,1365l5 2689 -1372 0 0 -5715z"/>
  <path class="fil0" d="M12139 3253l-850 855c-344,-344 -657,-516 -939,-516 -153,0 -273,33 -361,98 -88,65 -131,146 -131,242 0,74 28,141 83,203 55,62 193,146 411,255l502 251c530,260 894,526 1092,796 198,272 296,588 296,953 0,485 -179,891 -537,1214 -358,325 -837,487 -1439,487 -798,0 -1438,-311 -1914,-936l848 -922c162,187 351,341 569,456 217,115 409,174 578,174 181,0 328,-43 439,-131 112,-88 167,-187 167,-301 0,-212 -199,-418 -600,-617l-463 -232c-887,-445 -1331,-1003 -1331,-1672 0,-432 167,-801 500,-1107 334,-306 760,-459 1279,-459 356,0 690,79 1004,236 313,156 578,382 796,674z"/>
  <path class="fil1" d="M4315 11l1438 0 0 8080 -1438 0 0 -385c-423,245 -914,385 -1438,385 -1589,0 -2877,-1288 -2877,-2877 0,-1589 1288,-2877 2877,-2877 524,0 1015,140 1438,385l0 -2712zm-1438 3765c794,0 1438,644 1438,1438 0,794 -644,1438 -1438,1438 -794,0 -1438,-644 -1438,-1438 0,-794 644,-1438 1438,-1438z"/>
  <path class="fil1" d="M6377 2337l1438 0 0 5753 -1438 0 0 -5753zm709 -2327c537,0 973,436 973,973 0,537 -436,973 -973,973 -537,0 -973,-436 -973,-973 0,-537 436,-973 973,-973z"/>
  <path class="fil2" d="M19540 2337l1438 0 0 5753 -1438 0 0 -5753zm709 -2327c537,0 973,436 973,973 0,537 -436,973 -973,973 -537,0 -973,-436 -973,-973 0,-537 436,-973 973,-973z"/>
  <polygon class="fil1" points="13396,11 14834,11 14834,2363 15742,2363 15742,3812 14834,3812 14834,8078 13396,8078 13396,3812 12487,3812 12487,2363 13396,2363 "/>
  <path class="fil2" d="M25371 0c2237,0 4051,1813 4051,4051 0,1082 -424,2065 -1116,2792l879 1248 -1753 0 -282 -400c-537,263 -1141,411 -1779,411 -2237,0 -4051,-1813 -4051,-4051 0,-2237 1813,-4051 4051,-4051z"/>
  <g id="single_x0020_gear_x0020__x0028_no_x0020_shadow_x0029_.svg">
   <g>
    <path class="fil3" d="M27489 4879c-403,1230 -1726,1900 -2956,1498 -1229,-402 -1900,-1726 -1498,-2955 403,-1230 1726,-1900 2955,-1498 1230,403 1900,1726 1498,2955z"/>
   </g>
   <g>
    <path class="fil4" d="M27547 4898c-413,1262 -1771,1950 -3033,1537 -1262,-413 -1950,-1771 -1537,-3033 413,-1262 1771,-1950 3032,-1537 1262,413 1950,1771 1537,3032z"/>
    <path class="fil5" d="M27462 4902c-403,1230 -1727,1901 -2957,1499 -1230,-403 -1901,-1727 -1498,-2957 403,-1230 1727,-1901 2957,-1499 1230,403 1902,1727 1499,2957z"/>
    <path class="fil6" d="M27377 4907c-392,1199 -1683,1853 -2882,1460 -1199,-392 -1853,-1683 -1460,-2882 392,-1199 1683,-1853 2882,-1460 1199,392 1853,1683 1461,2882z"/>
    <path class="fil7" d="M27292 4912c-382,1168 -1639,1804 -2806,1422 -1168,-382 -1804,-1639 -1422,-2806 382,-1168 1639,-1804 2806,-1422 1168,382 1805,1639 1422,2806z"/>
    <path class="fil8" d="M27206 4916c-372,1136 -1595,1756 -2731,1384 -1136,-372 -1756,-1595 -1384,-2731 372,-1136 1595,-1756 2731,-1384 1136,372 1756,1595 1384,2731z"/>
    <path class="fil9" d="M27121 4921c-362,1105 -1551,1707 -2656,1346 -1105,-362 -1707,-1551 -1346,-2655 362,-1105 1550,-1707 2655,-1346 1105,362 1708,1550 1346,2655z"/>
    <path class="fil10" d="M27036 4925c-351,1073 -1507,1659 -2580,1308 -1073,-351 -1659,-1507 -1307,-2580 351,-1074 1506,-1659 2580,-1308 1073,351 1659,1506 1308,2580z"/>
    <path class="fil11" d="M26951 4930c-341,1042 -1463,1610 -2505,1269 -1042,-341 -1610,-1463 -1269,-2505 341,-1042 1462,-1610 2505,-1269 1042,341 1611,1462 1269,2505z"/>
    <path class="fil12" d="M26866 4934c-331,1011 -1419,1562 -2429,1231 -1011,-331 -1562,-1419 -1231,-2429 331,-1011 1418,-1562 2429,-1231 1011,331 1562,1418 1231,2429z"/>
    <path class="fil13" d="M26781 4939c-321,979 -1375,1513 -2354,1193 -979,-321 -1513,-1375 -1193,-2354 321,-980 1374,-1513 2354,-1193 979,321 1514,1374 1193,2354z"/>
    <path class="fil14" d="M26696 4943c-310,948 -1330,1465 -2278,1155 -948,-310 -1465,-1331 -1155,-2278 310,-948 1330,-1465 2278,-1155 948,310 1465,1330 1155,2278z"/>
    <path class="fil15" d="M26611 4948c-300,916 -1286,1416 -2203,1116 -917,-300 -1416,-1287 -1116,-2203 300,-917 1286,-1417 2203,-1117 917,300 1417,1286 1117,2203z"/>
    <path class="fil16" d="M26526 4952c-290,885 -1242,1368 -2128,1078 -885,-290 -1368,-1243 -1078,-2128 290,-885 1242,-1368 2128,-1078 885,290 1368,1242 1078,2128z"/>
    <path class="fil17" d="M26441 4957c-279,854 -1198,1319 -2052,1040 -854,-279 -1319,-1198 -1040,-2052 280,-854 1198,-1320 2052,-1040 854,279 1320,1198 1040,2052z"/>
    <path class="fil18" d="M26356 4961c-269,822 -1154,1271 -1977,1002 -822,-269 -1271,-1154 -1002,-1977 269,-823 1154,-1271 1977,-1002 822,269 1271,1154 1002,1977z"/>
    <path class="fil19" d="M26271 4966c-259,791 -1110,1222 -1901,964 -791,-259 -1222,-1110 -964,-1901 259,-791 1110,-1223 1901,-964 791,259 1223,1110 964,1901z"/>
    <path class="fil20" d="M26186 4971c-249,759 -1066,1174 -1826,925 -760,-249 -1174,-1066 -925,-1826 249,-760 1066,-1174 1826,-925 760,249 1174,1066 925,1826z"/>
    <path class="fil21" d="M26101 4975c-238,728 -1022,1125 -1751,887 -728,-238 -1125,-1022 -887,-1750 238,-729 1022,-1126 1751,-887 728,238 1126,1022 887,1751z"/>
    <path class="fil22" d="M26015 4980c-228,697 -978,1077 -1675,849 -697,-228 -1077,-978 -849,-1675 228,-697 978,-1077 1675,-849 697,228 1077,978 849,1675z"/>
    <path class="fil23" d="M25930 4984c-218,665 -934,1028 -1600,811 -666,-218 -1028,-934 -811,-1600 218,-666 934,-1029 1600,-811 666,218 1029,934 811,1600z"/>
    <path class="fil24" d="M25845 4989c-207,634 -890,980 -1524,772 -634,-208 -980,-890 -773,-1524 208,-635 890,-980 1524,-773 634,208 980,890 773,1524z"/>
    <path class="fil25" d="M25760 4993c-197,603 -846,931 -1449,734 -603,-197 -932,-846 -734,-1449 197,-603 846,-932 1449,-734 603,197 932,846 734,1449z"/>
    <path class="fil26" d="M25675 4998c-187,571 -802,883 -1373,696 -571,-187 -883,-802 -696,-1373 187,-572 802,-883 1374,-696 571,187 883,802 696,1374z"/>
    <path class="fil27" d="M25590 5002c-177,540 -758,834 -1298,658 -540,-177 -835,-758 -658,-1298 177,-540 758,-835 1298,-658 540,177 835,758 658,1298z"/>
    <path class="fil28" d="M25505 5007c-166,508 -714,786 -1223,619 -509,-167 -786,-714 -620,-1223 167,-509 714,-786 1223,-620 509,166 786,714 620,1223z"/>
    <path class="fil29" d="M25420 5011c-156,477 -670,737 -1147,581 -477,-156 -738,-670 -581,-1147 156,-478 670,-738 1147,-582 477,156 738,670 581,1147z"/>
    <path class="fil30" d="M25335 5016c-146,446 -626,689 -1072,543 -446,-146 -689,-626 -543,-1072 146,-446 626,-689 1072,-543 446,146 689,626 543,1072z"/>
    <path class="fil31" d="M25250 5020c-136,414 -582,641 -996,505 -415,-136 -641,-582 -505,-996 136,-415 582,-641 997,-505 415,136 641,582 505,997z"/>
    <path class="fil32" d="M25165 5025c-125,383 -538,592 -921,467 -383,-125 -592,-538 -467,-921 126,-384 538,-592 921,-467 383,125 592,538 467,921z"/>
    <path class="fil33" d="M25080 5030c-115,351 -494,544 -846,428 -352,-115 -544,-494 -429,-845 115,-352 494,-544 846,-429 352,115 544,494 429,846z"/>
    <path class="fil34" d="M24995 5034c-105,320 -450,495 -770,390 -320,-105 -495,-450 -390,-770 105,-321 450,-495 770,-391 320,105 495,450 390,770z"/>
    <path class="fil35" d="M24910 5039c-94,289 -406,446 -695,352 -289,-95 -447,-406 -352,-695 95,-290 406,-447 695,-352 289,95 447,405 352,695z"/>
   </g>
   <g>
    <g>
     <path class="fil36" d="M26160 1634c-81,-27 -162,-48 -244,-66l-133 -626 -814 -1 -135 626c-165,36 -326,88 -481,156l-476 -429 -660 478 259 585c-111,125 -211,261 -298,408l-637 -67 -253 774 553 322c-18,170 -17,339 -1,505l-554 320 250 775 637 -65c85,146 184,282 296,409l-260 585 658 480 477 -427c77,34 155,64 236,90 81,27 163,48 244,67l133 626 814 1 135 -626c166,-36 326,-88 480,-155l476 428 659 -478 -258 -586c111,-124 211,-261 297,-408l637 67 253 -774 -553 -322c17,-170 17,-339 1,-505l554 -320 -251 -775 -637 65c-85,-145 -184,-282 -296,-409l260 -585 -658 -480 -477 427c-76,-33 -155,-64 -236,-90zm1352 3115c-386,1182 -1657,1828 -2840,1442 -1182,-386 -1828,-1657 -1442,-2840 386,-1182 1658,-1828 2840,-1442 1182,386 1828,1657 1442,2840z"/>
    </g>
   </g>
   <path class="fil37" d="M26070 1910c-1182,-386 -2454,259 -2840,1442 -386,1182 259,2454 1442,2840 1182,386 2454,-260 2840,-1442 386,-1182 -259,-2454 -1442,-2840zm-1358 4159c-1115,-364 -1723,-1563 -1359,-2677 364,-1115 1563,-1723 2678,-1359 1115,364 1723,1563 1359,2677 -364,1115 -1563,1723 -2677,1359z"/>
  </g>
 </g>
</svg>
